<svg width="950" height="834" viewBox="0 0 950 834" fill="none" xmlns="http://www.w3.org/2000/svg">
<g clip-path="url(#clip0_583_35)">
<g filter="url(#filter0_dddd_583_35)">
<path d="M857.851 474.246C869.38 474.246 878.783 464.893 878.188 453.379C873.043 353.798 831.215 259.339 760.359 188.484C684.57 112.695 581.778 70.1167 474.597 70.1167C367.415 70.1167 264.623 112.695 188.834 188.484C117.978 259.339 76.1504 353.798 71.0055 453.379C70.4106 464.893 79.813 474.246 91.3421 474.246C102.871 474.246 112.154 464.89 112.818 453.38C117.919 364.879 155.331 281.03 218.356 218.005C286.315 150.046 378.488 111.867 474.597 111.867C570.706 111.867 662.878 150.046 730.838 218.005C793.862 281.03 831.274 364.879 836.375 453.38C837.039 464.89 846.322 474.246 857.851 474.246Z" fill="url(#paint0_linear_583_35)"/>
</g>
</g>
<defs>
<filter id="filter0_dddd_583_35" x="-10.5903" y="63.1747" width="894.879" height="477.889" filterUnits="userSpaceOnUse" color-interpolation-filters="sRGB">
<feFlood flood-opacity="0" result="BackgroundImageFix"/>
<feColorMatrix in="SourceAlpha" type="matrix" values="0 0 0 0 0 0 0 0 0 0 0 0 0 0 0 0 0 0 127 0" result="hardAlpha"/>
<feOffset dx="-3.47102" dy="2.60327"/>
<feGaussianBlur stdDeviation="4.77266"/>
<feColorMatrix type="matrix" values="0 0 0 0 0 0 0 0 0 0 0 0 0 0 0 0 0 0 0.04 0"/>
<feBlend mode="normal" in2="BackgroundImageFix" result="effect1_dropShadow_583_35"/>
<feColorMatrix in="SourceAlpha" type="matrix" values="0 0 0 0 0 0 0 0 0 0 0 0 0 0 0 0 0 0 127 0" result="hardAlpha"/>
<feOffset dx="-13.8841" dy="10.4131"/>
<feGaussianBlur stdDeviation="8.67756"/>
<feColorMatrix type="matrix" values="0 0 0 0 0 0 0 0 0 0 0 0 0 0 0 0 0 0 0.04 0"/>
<feBlend mode="normal" in2="effect1_dropShadow_583_35" result="effect2_dropShadow_583_35"/>
<feColorMatrix in="SourceAlpha" type="matrix" values="0 0 0 0 0 0 0 0 0 0 0 0 0 0 0 0 0 0 127 0" result="hardAlpha"/>
<feOffset dx="-31.2392" dy="22.5616"/>
<feGaussianBlur stdDeviation="11.2808"/>
<feColorMatrix type="matrix" values="0 0 0 0 0 0 0 0 0 0 0 0 0 0 0 0 0 0 0.02 0"/>
<feBlend mode="normal" in2="effect2_dropShadow_583_35" result="effect3_dropShadow_583_35"/>
<feColorMatrix in="SourceAlpha" type="matrix" values="0 0 0 0 0 0 0 0 0 0 0 0 0 0 0 0 0 0 127 0" result="hardAlpha"/>
<feOffset dx="-54.6686" dy="39.9168"/>
<feGaussianBlur stdDeviation="13.4502"/>
<feColorMatrix type="matrix" values="0 0 0 0 0 0 0 0 0 0 0 0 0 0 0 0 0 0 0.01 0"/>
<feBlend mode="normal" in2="effect3_dropShadow_583_35" result="effect4_dropShadow_583_35"/>
<feBlend mode="normal" in="SourceGraphic" in2="effect4_dropShadow_583_35" result="shape"/>
</filter>
<linearGradient id="paint0_linear_583_35" x1="454.547" y1="202.073" x2="474.597" y2="878.376" gradientUnits="userSpaceOnUse">
<stop stop-color="#CFCFCF"/>
<stop offset="0.969852" stop-color="white"/>
</linearGradient>
<clipPath id="clip0_583_35">
<rect width="1920" height="1080" fill="white" transform="translate(-485 -246)"/>
</clipPath>
</defs>
</svg>
