<svg width="74" height="70" viewBox="0 0 74 70" fill="none" xmlns="http://www.w3.org/2000/svg">
<path d="M47.5005 46.4019C48.08 46.9135 48.969 46.8612 49.4378 46.2466C51.7398 43.2288 53.1207 39.5972 53.3958 35.7914C53.6708 31.9857 52.8265 28.1932 50.9823 24.8758C50.6068 24.2002 49.7346 24.0206 49.0875 24.4435C48.4405 24.8664 48.2645 25.7314 48.6319 26.4114C50.1453 29.212 50.8347 32.3954 50.6038 35.5897C50.373 38.7839 49.233 41.8351 47.3327 44.389C46.8712 45.0091 46.921 45.8904 47.5005 46.4019Z" fill="url(#paint0_linear_583_26)"/>
<path d="M55.6197 50.4868C56.2895 51.0895 57.3257 51.0383 57.8831 50.3304C60.8876 46.5141 62.7124 41.8879 63.1108 37.0231C63.5093 32.1584 62.4617 27.297 60.1181 23.0426C59.6834 22.2535 58.6693 22.0343 57.9104 22.52C57.1516 23.0056 56.9361 24.012 57.363 24.8055C59.3258 28.4544 60.1991 32.6042 59.8589 36.7568C59.5188 40.9094 57.9819 44.8617 55.4515 48.1426C54.9012 48.8561 54.95 49.8841 55.6197 50.4868Z" fill="url(#paint1_linear_583_26)"/>
<path d="M22.0066 24.4214C21.3233 24.0602 20.4714 24.3197 20.16 25.0271C18.6306 28.5009 18.1407 32.3553 18.7667 36.1192C19.3926 39.8832 21.1036 43.3715 23.6749 46.1634C24.1986 46.732 25.0886 46.7018 25.6183 46.1388C26.148 45.5759 26.116 44.6938 25.5992 44.119C23.4707 41.7518 22.0534 38.8192 21.528 35.66C21.0026 32.5008 21.3945 29.2673 22.6423 26.3387C22.9453 25.6276 22.69 24.7826 22.0066 24.4214Z" fill="url(#paint2_linear_583_26)"/>
<path d="M13.4525 22.8995C12.6647 22.4623 11.6663 22.7445 11.2819 23.5594C9.20939 27.9521 8.46825 32.8696 9.17057 37.6999C9.87289 42.5301 11.9838 47.0329 15.2214 50.6536C15.822 51.3252 16.8594 51.3114 17.4901 50.668C18.1207 50.0245 18.1051 48.9955 17.5112 48.3179C14.7803 45.2019 12.9989 41.3535 12.3994 37.2304C11.7999 33.1073 12.4116 28.9109 14.1421 25.1462C14.5184 24.3276 14.2403 23.3367 13.4525 22.8995Z" fill="url(#paint3_linear_583_26)"/>
<circle cx="36.044" cy="35.178" r="7.2088" fill="url(#paint4_linear_583_26)"/>
<defs>
<linearGradient id="paint0_linear_583_26" x1="46.8297" y1="19.7141" x2="20.9357" y2="49.0483" gradientUnits="userSpaceOnUse">
<stop stop-color="#EC4646"/>
<stop offset="1" stop-color="#CACACA"/>
</linearGradient>
<linearGradient id="paint1_linear_583_26" x1="54.9886" y1="16.5781" x2="21.8324" y2="53.4219" gradientUnits="userSpaceOnUse">
<stop stop-color="#EC4646"/>
<stop offset="1" stop-color="#CACACA"/>
</linearGradient>
<linearGradient id="paint2_linear_583_26" x1="20.7785" y1="29.6668" x2="35.1961" y2="54.2615" gradientUnits="userSpaceOnUse">
<stop stop-color="#EC4646"/>
<stop offset="1" stop-color="#CACACA"/>
</linearGradient>
<linearGradient id="paint3_linear_583_26" x1="13.9936" y1="28.8494" x2="25.8669" y2="58.9567" gradientUnits="userSpaceOnUse">
<stop stop-color="#EC4646"/>
<stop offset="1" stop-color="#CACACA"/>
</linearGradient>
<linearGradient id="paint4_linear_583_26" x1="36.044" y1="27.9692" x2="36.044" y2="50.6433" gradientUnits="userSpaceOnUse">
<stop stop-color="#EC4646"/>
<stop offset="1" stop-color="white"/>
</linearGradient>
</defs>
</svg>
