<svg width="950" height="834" viewBox="0 0 950 834" fill="none" xmlns="http://www.w3.org/2000/svg">
<g clip-path="url(#clip0_949_272)">
<mask id="mask0_949_272" style="mask-type:luminance" maskUnits="userSpaceOnUse" x="-10" y="-17" width="961" height="852">
<path d="M939.931 -17.0001L-10 -5.56885L0.107636 834.37L950.039 822.939L939.931 -17.0001Z" fill="white"/>
</mask>
<g mask="url(#mask0_949_272)">
<path d="M595.682 188.366C596.929 185.424 595.535 182.027 592.561 180.868C511.727 149.369 421.66 149.341 340.605 180.791C337.63 181.946 336.22 185.333 337.446 188.275L385.138 302.731C386.348 305.634 389.671 307.009 392.618 305.901C440.029 288.08 492.401 288.099 539.685 305.952C542.623 307.061 545.947 305.697 547.175 302.802L595.682 188.366Z" fill="#BAE0FF"/>
<path d="M793.99 502.617C797.169 502.617 799.762 499.994 799.698 496.785C798.551 438.694 783.377 381.476 755.566 330.378C754.045 327.583 750.53 326.652 747.786 328.276L642.636 390.508C639.92 392.115 638.986 395.618 640.456 398.404C656.164 428.171 665.109 463.303 666.129 496.923C666.224 500.078 668.74 502.616 671.866 502.616L793.99 502.617Z" fill="#5EACFF"/>
<path d="M745.679 320.829C748.388 319.141 749.192 315.516 747.415 312.821C712.861 260.416 664.992 218.04 608.956 190.253C606.109 188.841 602.706 190.103 601.397 193.011L550.721 305.646C549.424 308.528 550.676 311.939 553.482 313.367C585.614 329.727 613.161 354.124 633.38 384.131C635.137 386.737 638.593 387.551 641.231 385.908L745.679 320.829Z" fill="#95C8FF"/>
<path d="M329.307 190.937C327.984 187.968 324.513 186.681 321.657 188.144C265.831 216.736 218.273 260.224 184.174 313.866C182.46 316.562 183.304 320.158 186.005 321.839L289.846 386.476C292.512 388.135 295.983 387.301 297.702 384.657C317.696 353.904 345.117 328.847 377.187 312.024C379.923 310.589 381.121 307.235 379.848 304.377L329.307 190.937Z" fill="#007CFF"/>
<path d="M0.399172 502.617C-2.63008 502.617 -5.15623 500.25 -5.28585 497.193C-8.55339 420.12 19.4976 306.683 58.9568 255.774C60.6769 253.555 63.7664 253.085 66.1693 254.56L287.537 390.476C290.195 392.108 291.089 395.569 289.63 398.32C273.839 428.106 264.335 463.273 263.257 496.924C263.155 500.079 260.64 502.617 257.514 502.617H0.399172Z" fill="url(#paint0_linear_949_272)"/>
<path d="M619.436 279.823V304.855H614.144V284.846H613.997L608.264 288.44V283.746L614.461 279.823H619.436ZM635.201 305.405C633.098 305.397 631.289 304.879 629.774 303.853C628.266 302.826 627.105 301.339 626.29 299.391C625.483 297.444 625.084 295.101 625.092 292.363C625.092 289.633 625.496 287.307 626.302 285.384C627.117 283.461 628.278 281.998 629.786 280.996C631.301 279.985 633.106 279.48 635.201 279.48C637.295 279.48 639.096 279.985 640.603 280.996C642.119 282.006 643.284 283.473 644.099 285.396C644.914 287.311 645.317 289.633 645.309 292.363C645.309 295.109 644.901 297.456 644.087 299.404C643.28 301.351 642.123 302.838 640.615 303.865C639.108 304.892 637.303 305.405 635.201 305.405ZM635.201 301.017C636.635 301.017 637.78 300.296 638.635 298.854C639.491 297.411 639.915 295.248 639.906 292.363C639.906 290.465 639.711 288.884 639.32 287.621C638.937 286.358 638.391 285.408 637.682 284.773C636.981 284.137 636.154 283.819 635.201 283.819C633.775 283.819 632.634 284.532 631.778 285.958C630.923 287.384 630.491 289.519 630.483 292.363C630.483 294.286 630.674 295.892 631.057 297.179C631.448 298.458 631.998 299.42 632.707 300.064C633.416 300.699 634.247 301.017 635.201 301.017ZM662.785 300.161V298.841C662.785 297.839 662.996 296.918 663.42 296.079C663.852 295.231 664.475 294.555 665.29 294.05C666.113 293.537 667.116 293.28 668.297 293.28C669.495 293.28 670.501 293.533 671.316 294.038C672.139 294.543 672.758 295.219 673.174 296.067C673.598 296.906 673.81 297.831 673.81 298.841V300.161C673.81 301.164 673.598 302.089 673.174 302.936C672.75 303.775 672.127 304.448 671.304 304.953C670.481 305.466 669.479 305.723 668.297 305.723C667.099 305.723 666.093 305.466 665.278 304.953C664.463 304.448 663.844 303.775 663.42 302.936C662.996 302.089 662.785 301.164 662.785 300.161ZM666.341 298.841V300.161C666.341 300.74 666.48 301.286 666.757 301.799C667.042 302.313 667.556 302.569 668.297 302.569C669.039 302.569 669.544 302.317 669.813 301.811C670.09 301.306 670.228 300.756 670.228 300.161V298.841C670.228 298.246 670.098 297.692 669.837 297.179C669.576 296.666 669.063 296.409 668.297 296.409C667.564 296.409 667.054 296.666 666.769 297.179C666.484 297.692 666.341 298.246 666.341 298.841ZM649.938 285.836V284.516C649.938 283.506 650.154 282.581 650.586 281.742C651.018 280.894 651.641 280.218 652.456 279.713C653.279 279.207 654.273 278.955 655.439 278.955C656.645 278.955 657.655 279.207 658.47 279.713C659.285 280.218 659.904 280.894 660.328 281.742C660.751 282.581 660.963 283.506 660.963 284.516V285.836C660.963 286.847 660.747 287.771 660.316 288.611C659.892 289.45 659.268 290.122 658.445 290.628C657.631 291.125 656.628 291.373 655.439 291.373C654.249 291.373 653.243 291.121 652.42 290.615C651.605 290.102 650.985 289.43 650.562 288.599C650.146 287.759 649.938 286.838 649.938 285.836ZM653.52 284.516V285.836C653.52 286.431 653.658 286.981 653.935 287.486C654.22 287.991 654.722 288.244 655.439 288.244C656.188 288.244 656.698 287.991 656.966 287.486C657.244 286.981 657.382 286.431 657.382 285.836V284.516C657.382 283.921 657.252 283.367 656.991 282.854C656.73 282.34 656.213 282.084 655.439 282.084C654.713 282.084 654.212 282.345 653.935 282.866C653.658 283.388 653.52 283.938 653.52 284.516ZM651.552 304.855L668.762 279.823H671.964L654.754 304.855H651.552Z" fill="white"/>
<path d="M451.175 232.03C449.888 232.022 448.645 231.806 447.447 231.382C446.258 230.958 445.19 230.27 444.245 229.316C443.3 228.363 442.55 227.1 441.996 225.527C441.45 223.954 441.177 222.023 441.177 219.734C441.185 217.631 441.426 215.753 441.898 214.099C442.379 212.436 443.063 211.027 443.952 209.87C444.848 208.713 445.92 207.833 447.166 207.23C448.413 206.618 449.81 206.313 451.359 206.313C453.029 206.313 454.504 206.639 455.783 207.291C457.063 207.934 458.089 208.81 458.864 209.919C459.646 211.027 460.118 212.269 460.281 213.647H455.062C454.859 212.775 454.431 212.09 453.779 211.593C453.127 211.096 452.32 210.847 451.359 210.847C449.729 210.847 448.49 211.556 447.643 212.974C446.804 214.392 446.376 216.319 446.36 218.756H446.531C446.906 218.014 447.411 217.383 448.046 216.861C448.69 216.331 449.419 215.928 450.234 215.651C451.057 215.366 451.925 215.223 452.838 215.223C454.321 215.223 455.641 215.574 456.798 216.274C457.955 216.967 458.868 217.92 459.536 219.135C460.204 220.349 460.538 221.738 460.538 223.303C460.538 224.998 460.143 226.505 459.352 227.825C458.57 229.145 457.474 230.18 456.065 230.93C454.663 231.671 453.033 232.038 451.175 232.03ZM451.151 227.874C451.966 227.874 452.695 227.678 453.339 227.287C453.983 226.896 454.488 226.366 454.854 225.698C455.221 225.03 455.404 224.28 455.404 223.449C455.404 222.618 455.221 221.873 454.854 221.212C454.496 220.552 453.999 220.027 453.363 219.636C452.728 219.245 452.002 219.049 451.188 219.049C450.576 219.049 450.01 219.163 449.489 219.391C448.975 219.619 448.523 219.937 448.132 220.345C447.749 220.752 447.447 221.225 447.227 221.763C447.007 222.292 446.897 222.859 446.897 223.462C446.897 224.268 447.081 225.006 447.447 225.674C447.822 226.342 448.327 226.876 448.963 227.275C449.607 227.674 450.336 227.874 451.151 227.874ZM477.992 226.994V225.674C477.992 224.672 478.204 223.751 478.628 222.911C479.06 222.064 479.683 221.388 480.498 220.882C481.321 220.369 482.323 220.112 483.505 220.112C484.703 220.112 485.709 220.365 486.524 220.87C487.347 221.375 487.966 222.052 488.382 222.899C488.806 223.739 489.017 224.663 489.017 225.674V226.994C489.017 227.996 488.806 228.921 488.382 229.769C487.958 230.608 487.335 231.28 486.512 231.785C485.689 232.299 484.686 232.555 483.505 232.555C482.307 232.555 481.301 232.299 480.486 231.785C479.671 231.28 479.052 230.608 478.628 229.769C478.204 228.921 477.992 227.996 477.992 226.994ZM481.549 225.674V226.994C481.549 227.572 481.688 228.118 481.965 228.632C482.25 229.145 482.763 229.402 483.505 229.402C484.246 229.402 484.752 229.149 485.021 228.644C485.298 228.139 485.436 227.589 485.436 226.994V225.674C485.436 225.079 485.306 224.525 485.045 224.012C484.784 223.498 484.271 223.241 483.505 223.241C482.772 223.241 482.262 223.498 481.977 224.012C481.692 224.525 481.549 225.079 481.549 225.674ZM465.146 212.669V211.349C465.146 210.338 465.362 209.413 465.794 208.574C466.226 207.727 466.849 207.05 467.664 206.545C468.487 206.04 469.481 205.787 470.646 205.787C471.852 205.787 472.863 206.04 473.678 206.545C474.493 207.05 475.112 207.727 475.536 208.574C475.959 209.413 476.171 210.338 476.171 211.349V212.669C476.171 213.679 475.955 214.604 475.523 215.443C475.1 216.283 474.476 216.955 473.653 217.46C472.838 217.957 471.836 218.206 470.646 218.206C469.457 218.206 468.45 217.953 467.627 217.448C466.813 216.934 466.193 216.262 465.769 215.431C465.354 214.592 465.146 213.671 465.146 212.669ZM468.727 211.349V212.669C468.727 213.264 468.866 213.814 469.143 214.319C469.428 214.824 469.929 215.077 470.646 215.077C471.396 215.077 471.905 214.824 472.174 214.319C472.451 213.814 472.59 213.264 472.59 212.669V211.349C472.59 210.754 472.459 210.2 472.199 209.686C471.938 209.173 471.421 208.916 470.646 208.916C469.921 208.916 469.42 209.177 469.143 209.699C468.866 210.22 468.727 210.77 468.727 211.349ZM466.76 231.688L483.969 206.655H487.172L469.962 231.688H466.76Z" fill="white"/>
<path d="M702.391 409.898V434.93H697.099V414.921H696.952L691.219 418.515V413.821L697.416 409.898H702.391ZM708.341 434.93V431.117L717.251 422.866C718.009 422.133 718.645 421.473 719.158 420.886C719.679 420.299 720.075 419.725 720.344 419.163C720.612 418.592 720.747 417.977 720.747 417.317C720.747 416.584 720.58 415.952 720.246 415.422C719.912 414.885 719.455 414.473 718.877 414.188C718.298 413.895 717.642 413.748 716.909 413.748C716.143 413.748 715.475 413.903 714.904 414.212C714.334 414.522 713.894 414.966 713.584 415.545C713.275 416.123 713.12 416.812 713.12 417.61H708.096C708.096 415.972 708.467 414.551 709.208 413.345C709.95 412.139 710.989 411.206 712.325 410.546C713.662 409.885 715.202 409.555 716.946 409.555C718.738 409.555 720.299 409.873 721.627 410.509C722.963 411.136 724.002 412.008 724.744 413.125C725.485 414.241 725.856 415.52 725.856 416.963C725.856 417.908 725.669 418.841 725.294 419.762C724.927 420.682 724.271 421.705 723.326 422.83C722.381 423.946 721.048 425.286 719.329 426.851L715.674 430.432V430.603H726.186V434.93H708.341ZM743.723 430.237V428.917C743.723 427.914 743.935 426.993 744.358 426.154C744.79 425.307 745.414 424.63 746.229 424.125C747.052 423.612 748.054 423.355 749.235 423.355C750.433 423.355 751.44 423.608 752.254 424.113C753.077 424.618 753.697 425.294 754.112 426.142C754.536 426.981 754.748 427.906 754.748 428.917V430.237C754.748 431.239 754.536 432.164 754.112 433.011C753.689 433.85 753.065 434.523 752.242 435.028C751.419 435.541 750.417 435.798 749.235 435.798C748.038 435.798 747.031 435.541 746.216 435.028C745.401 434.523 744.782 433.85 744.358 433.011C743.935 432.164 743.723 431.239 743.723 430.237ZM747.28 428.917V430.237C747.28 430.815 747.418 431.361 747.695 431.874C747.98 432.388 748.494 432.644 749.235 432.644C749.977 432.644 750.482 432.392 750.751 431.887C751.028 431.381 751.167 430.831 751.167 430.237V428.917C751.167 428.322 751.036 427.768 750.775 427.254C750.515 426.741 750.001 426.484 749.235 426.484C748.502 426.484 747.993 426.741 747.708 427.254C747.422 427.768 747.28 428.322 747.28 428.917ZM730.877 415.911V414.591C730.877 413.581 731.093 412.656 731.524 411.817C731.956 410.969 732.58 410.293 733.395 409.788C734.218 409.282 735.212 409.03 736.377 409.03C737.583 409.03 738.593 409.282 739.408 409.788C740.223 410.293 740.842 410.969 741.266 411.817C741.69 412.656 741.902 413.581 741.902 414.591V415.911C741.902 416.922 741.686 417.847 741.254 418.686C740.83 419.525 740.207 420.198 739.384 420.703C738.569 421.2 737.567 421.448 736.377 421.448C735.187 421.448 734.181 421.196 733.358 420.691C732.543 420.177 731.924 419.505 731.5 418.674C731.084 417.834 730.877 416.914 730.877 415.911ZM734.458 414.591V415.911C734.458 416.506 734.596 417.056 734.873 417.561C735.159 418.067 735.66 418.319 736.377 418.319C737.127 418.319 737.636 418.067 737.905 417.561C738.182 417.056 738.32 416.506 738.32 415.911V414.591C738.32 413.996 738.19 413.442 737.929 412.929C737.668 412.416 737.151 412.159 736.377 412.159C735.652 412.159 735.151 412.42 734.873 412.941C734.596 413.463 734.458 414.013 734.458 414.591ZM732.49 434.93L749.7 409.898H752.902L735.692 434.93H732.49Z" fill="white"/>
<path d="M259.824 306L270.075 285.716V285.547H258.134V281.273H275.484V285.607L265.221 306H259.824ZM288.231 306.543C286.154 306.535 284.367 306.024 282.87 305.01C281.381 303.996 280.234 302.527 279.429 300.603C278.632 298.679 278.238 296.365 278.246 293.661C278.246 290.964 278.644 288.666 279.441 286.766C280.246 284.867 281.393 283.422 282.882 282.432C284.379 281.434 286.162 280.935 288.231 280.935C290.299 280.935 292.078 281.434 293.567 282.432C295.065 283.43 296.216 284.879 297.021 286.778C297.826 288.67 298.224 290.964 298.216 293.661C298.216 296.373 297.813 298.691 297.009 300.615C296.212 302.539 295.069 304.008 293.58 305.022C292.09 306.036 290.308 306.543 288.231 306.543ZM288.231 302.209C289.647 302.209 290.778 301.496 291.624 300.072C292.469 298.647 292.887 296.51 292.879 293.661C292.879 291.785 292.686 290.223 292.3 288.976C291.921 287.728 291.382 286.79 290.682 286.163C289.99 285.535 289.173 285.221 288.231 285.221C286.822 285.221 285.695 285.925 284.85 287.334C284.005 288.742 283.578 290.851 283.57 293.661C283.57 295.56 283.759 297.146 284.138 298.418C284.524 299.681 285.067 300.631 285.768 301.267C286.468 301.895 287.289 302.209 288.231 302.209ZM315.479 301.364V300.06C315.479 299.07 315.688 298.16 316.106 297.331C316.533 296.494 317.149 295.826 317.954 295.327C318.767 294.82 319.757 294.566 320.924 294.566C322.107 294.566 323.101 294.816 323.906 295.315C324.719 295.814 325.331 296.482 325.741 297.319C326.16 298.148 326.369 299.062 326.369 300.06V301.364C326.369 302.354 326.16 303.267 325.741 304.104C325.323 304.933 324.707 305.598 323.894 306.097C323.081 306.604 322.091 306.857 320.924 306.857C319.741 306.857 318.747 306.604 317.942 306.097C317.137 305.598 316.525 304.933 316.106 304.104C315.688 303.267 315.479 302.354 315.479 301.364ZM318.992 300.06V301.364C318.992 301.935 319.129 302.474 319.403 302.982C319.684 303.489 320.191 303.742 320.924 303.742C321.656 303.742 322.155 303.493 322.421 302.994C322.695 302.495 322.832 301.951 322.832 301.364V300.06C322.832 299.472 322.703 298.925 322.445 298.418C322.188 297.911 321.68 297.657 320.924 297.657C320.199 297.657 319.696 297.911 319.415 298.418C319.133 298.925 318.992 299.472 318.992 300.06ZM302.789 287.213V285.909C302.789 284.911 303.002 283.997 303.429 283.168C303.855 282.331 304.471 281.663 305.276 281.164C306.089 280.665 307.071 280.415 308.222 280.415C309.413 280.415 310.412 280.665 311.216 281.164C312.021 281.663 312.633 282.331 313.052 283.168C313.47 283.997 313.68 284.911 313.68 285.909V287.213C313.68 288.211 313.466 289.125 313.04 289.954C312.621 290.783 312.005 291.447 311.192 291.946C310.387 292.437 309.397 292.683 308.222 292.683C307.047 292.683 306.053 292.433 305.24 291.934C304.435 291.427 303.823 290.763 303.405 289.942C302.994 289.113 302.789 288.203 302.789 287.213ZM306.327 285.909V287.213C306.327 287.801 306.463 288.344 306.737 288.843C307.019 289.342 307.514 289.592 308.222 289.592C308.963 289.592 309.466 289.342 309.731 288.843C310.005 288.344 310.142 287.801 310.142 287.213V285.909C310.142 285.321 310.013 284.774 309.756 284.267C309.498 283.76 308.987 283.506 308.222 283.506C307.506 283.506 307.011 283.764 306.737 284.279C306.463 284.794 306.327 285.338 306.327 285.909ZM304.383 306L321.383 281.273H324.546L307.546 306H304.383Z" fill="white"/>
</g>
</g>
<defs>
<linearGradient id="paint0_linear_949_272" x1="199" y1="425" x2="-207" y2="341" gradientUnits="userSpaceOnUse">
<stop stop-color="#DAEEFF"/>
<stop offset="1" stop-color="#F3F3F3"/>
</linearGradient>
<clipPath id="clip0_949_272">
<rect width="950" height="834" fill="white"/>
</clipPath>
</defs>
</svg>
