<svg width="950" height="834" viewBox="0 0 950 834" fill="none" xmlns="http://www.w3.org/2000/svg">
<g clip-path="url(#clip0_949_255)">
<mask id="mask0_949_255" style="mask-type:luminance" maskUnits="userSpaceOnUse" x="-10" y="-17" width="961" height="852">
<path d="M939.931 -17.0001L-10 -5.56885L0.107636 834.37L950.039 822.939L939.931 -17.0001Z" fill="white"/>
</mask>
<g mask="url(#mask0_949_255)">
<path d="M595.682 188.365C596.929 185.423 595.535 182.026 592.561 180.867C511.727 149.368 421.66 149.34 340.605 180.79C337.63 181.945 336.22 185.332 337.446 188.274L385.138 302.73C386.348 305.633 389.671 307.008 392.618 305.9C440.029 288.079 492.401 288.098 539.685 305.951C542.623 307.06 545.947 305.696 547.175 302.801L595.682 188.365Z" fill="#97F4B0"/>
<path d="M927.764 502.615C930.726 502.615 933.219 500.347 933.442 497.363C938.891 424.344 918.761 317.196 873.051 252.222C871.348 249.802 868.073 249.206 865.556 250.782L642.444 390.459C639.816 392.104 638.944 395.543 640.39 398.278C656.138 428.072 665.107 463.255 666.128 496.922C666.224 500.076 668.74 502.615 671.866 502.615H927.764Z" fill="url(#paint0_linear_949_255)"/>
<path d="M745.679 320.829C748.388 319.141 749.193 315.516 747.416 312.821C712.861 260.416 664.992 218.04 608.956 190.253C606.109 188.841 602.706 190.103 601.398 193.011L550.721 305.646C549.425 308.528 550.677 311.939 553.483 313.367C585.615 329.727 613.162 354.124 633.381 384.131C635.137 386.737 638.594 387.551 641.231 385.908L745.679 320.829Z" fill="#48E070"/>
<path d="M329.307 190.936C327.984 187.967 324.513 186.68 321.657 188.143C265.831 216.735 218.273 260.223 184.174 313.865C182.46 316.561 183.304 320.157 186.005 321.838L289.846 386.475C292.512 388.134 295.983 387.3 297.702 384.656C317.696 353.903 345.117 328.846 377.187 312.023C379.923 310.588 381.121 307.234 379.848 304.376L329.307 190.936Z" fill="#00B02F"/>
<path d="M136.057 502.616C132.878 502.616 130.286 499.993 130.349 496.784C131.496 438.693 146.671 381.475 174.481 330.377C176.003 327.582 179.517 326.651 182.261 328.275L287.412 390.507C290.127 392.114 291.062 395.617 289.588 398.4C273.822 428.169 264.335 463.303 263.257 496.923C263.156 500.078 260.64 502.617 257.514 502.617L136.057 502.616Z" fill="#C9F4D4"/>
<path d="M258.824 306L269.075 285.716V285.547H257.134V281.273H274.484V285.607L264.221 306H258.824ZM287.231 306.543C285.154 306.535 283.367 306.024 281.87 305.01C280.381 303.996 279.234 302.527 278.429 300.603C277.632 298.679 277.238 296.365 277.246 293.66C277.246 290.964 277.644 288.666 278.441 286.766C279.246 284.867 280.393 283.422 281.882 282.432C283.379 281.434 285.162 280.935 287.231 280.935C289.299 280.935 291.078 281.434 292.567 282.432C294.065 283.43 295.216 284.879 296.021 286.778C296.826 288.67 297.224 290.964 297.216 293.66C297.216 296.373 296.813 298.691 296.009 300.615C295.212 302.539 294.069 304.008 292.58 305.022C291.09 306.036 289.308 306.543 287.231 306.543ZM287.231 302.209C288.647 302.209 289.778 301.496 290.624 300.072C291.469 298.647 291.887 296.51 291.879 293.66C291.879 291.785 291.686 290.223 291.3 288.976C290.921 287.728 290.382 286.79 289.682 286.163C288.99 285.535 288.173 285.221 287.231 285.221C285.822 285.221 284.695 285.925 283.85 287.334C283.005 288.742 282.578 290.851 282.57 293.66C282.57 295.56 282.759 297.146 283.138 298.418C283.524 299.681 284.067 300.631 284.768 301.267C285.468 301.895 286.289 302.209 287.231 302.209ZM314.479 301.364V300.06C314.479 299.07 314.688 298.16 315.106 297.331C315.533 296.494 316.149 295.826 316.954 295.327C317.767 294.82 318.757 294.566 319.924 294.566C321.107 294.566 322.101 294.816 322.906 295.315C323.719 295.814 324.331 296.482 324.741 297.319C325.16 298.148 325.369 299.062 325.369 300.06V301.364C325.369 302.354 325.16 303.267 324.741 304.104C324.323 304.933 323.707 305.598 322.894 306.097C322.081 306.604 321.091 306.857 319.924 306.857C318.741 306.857 317.747 306.604 316.942 306.097C316.137 305.598 315.525 304.933 315.106 304.104C314.688 303.267 314.479 302.354 314.479 301.364ZM317.992 300.06V301.364C317.992 301.935 318.129 302.474 318.403 302.982C318.684 303.489 319.191 303.742 319.924 303.742C320.656 303.742 321.155 303.493 321.421 302.994C321.695 302.495 321.832 301.951 321.832 301.364V300.06C321.832 299.472 321.703 298.925 321.445 298.418C321.188 297.91 320.68 297.657 319.924 297.657C319.199 297.657 318.696 297.91 318.415 298.418C318.133 298.925 317.992 299.472 317.992 300.06ZM301.789 287.213V285.909C301.789 284.911 302.002 283.997 302.429 283.168C302.855 282.331 303.471 281.663 304.276 281.164C305.089 280.665 306.071 280.415 307.222 280.415C308.413 280.415 309.412 280.665 310.216 281.164C311.021 281.663 311.633 282.331 312.052 283.168C312.47 283.997 312.68 284.911 312.68 285.909V287.213C312.68 288.211 312.466 289.125 312.04 289.954C311.621 290.783 311.005 291.447 310.192 291.946C309.387 292.437 308.397 292.682 307.222 292.682C306.047 292.682 305.053 292.433 304.24 291.934C303.435 291.427 302.823 290.763 302.405 289.942C301.994 289.113 301.789 288.203 301.789 287.213ZM305.327 285.909V287.213C305.327 287.801 305.463 288.344 305.737 288.843C306.019 289.342 306.514 289.592 307.222 289.592C307.963 289.592 308.466 289.342 308.731 288.843C309.005 288.344 309.142 287.801 309.142 287.213V285.909C309.142 285.321 309.013 284.774 308.756 284.267C308.498 283.76 307.987 283.506 307.222 283.506C306.506 283.506 306.011 283.764 305.737 284.279C305.463 284.794 305.327 285.338 305.327 285.909ZM303.383 306L320.383 281.273H323.546L306.546 306H303.383Z" fill="white"/>
<path d="M619.436 279.823V304.855H614.144V284.846H613.997L608.264 288.44V283.746L614.461 279.823H619.436ZM635.201 305.405C633.098 305.397 631.289 304.879 629.774 303.853C628.266 302.826 627.105 301.339 626.29 299.391C625.483 297.444 625.084 295.101 625.092 292.363C625.092 289.633 625.496 287.307 626.302 285.384C627.117 283.461 628.278 281.998 629.786 280.996C631.301 279.985 633.106 279.48 635.201 279.48C637.295 279.48 639.096 279.985 640.603 280.996C642.119 282.006 643.284 283.473 644.099 285.396C644.914 287.311 645.317 289.633 645.309 292.363C645.309 295.109 644.901 297.456 644.087 299.404C643.28 301.351 642.123 302.838 640.615 303.865C639.108 304.892 637.303 305.405 635.201 305.405ZM635.201 301.017C636.635 301.017 637.78 300.296 638.635 298.854C639.491 297.411 639.915 295.248 639.906 292.363C639.906 290.465 639.711 288.884 639.32 287.621C638.937 286.358 638.391 285.408 637.682 284.773C636.981 284.137 636.154 283.819 635.201 283.819C633.775 283.819 632.634 284.532 631.778 285.958C630.923 287.384 630.491 289.519 630.483 292.363C630.483 294.286 630.674 295.892 631.057 297.179C631.448 298.458 631.998 299.42 632.707 300.064C633.416 300.699 634.247 301.017 635.201 301.017ZM662.785 300.161V298.841C662.785 297.839 662.996 296.918 663.42 296.079C663.852 295.231 664.475 294.555 665.29 294.05C666.113 293.537 667.116 293.28 668.297 293.28C669.495 293.28 670.501 293.533 671.316 294.038C672.139 294.543 672.758 295.219 673.174 296.067C673.598 296.906 673.81 297.831 673.81 298.841V300.161C673.81 301.164 673.598 302.089 673.174 302.936C672.75 303.775 672.127 304.448 671.304 304.953C670.481 305.466 669.479 305.723 668.297 305.723C667.099 305.723 666.093 305.466 665.278 304.953C664.463 304.448 663.844 303.775 663.42 302.936C662.996 302.089 662.785 301.164 662.785 300.161ZM666.341 298.841V300.161C666.341 300.74 666.48 301.286 666.757 301.799C667.042 302.313 667.556 302.569 668.297 302.569C669.039 302.569 669.544 302.317 669.813 301.811C670.09 301.306 670.228 300.756 670.228 300.161V298.841C670.228 298.246 670.098 297.692 669.837 297.179C669.576 296.666 669.063 296.409 668.297 296.409C667.564 296.409 667.054 296.666 666.769 297.179C666.484 297.692 666.341 298.246 666.341 298.841ZM649.938 285.836V284.516C649.938 283.506 650.154 282.581 650.586 281.742C651.018 280.894 651.641 280.218 652.456 279.713C653.279 279.207 654.273 278.955 655.439 278.955C656.645 278.955 657.655 279.207 658.47 279.713C659.285 280.218 659.904 280.894 660.328 281.742C660.751 282.581 660.963 283.506 660.963 284.516V285.836C660.963 286.847 660.747 287.771 660.316 288.611C659.892 289.45 659.268 290.122 658.445 290.628C657.631 291.125 656.628 291.373 655.439 291.373C654.249 291.373 653.243 291.121 652.42 290.615C651.605 290.102 650.985 289.43 650.562 288.599C650.146 287.759 649.938 286.838 649.938 285.836ZM653.52 284.516V285.836C653.52 286.431 653.658 286.981 653.935 287.486C654.22 287.991 654.722 288.244 655.439 288.244C656.188 288.244 656.698 287.991 656.966 287.486C657.244 286.981 657.382 286.431 657.382 285.836V284.516C657.382 283.921 657.252 283.367 656.991 282.854C656.73 282.34 656.213 282.084 655.439 282.084C654.713 282.084 654.212 282.345 653.935 282.866C653.658 283.388 653.52 283.938 653.52 284.516ZM651.552 304.855L668.762 279.823H671.964L654.754 304.855H651.552Z" fill="white"/>
<path d="M451.175 232.03C449.888 232.022 448.645 231.806 447.447 231.382C446.258 230.958 445.19 230.27 444.245 229.316C443.3 228.363 442.55 227.1 441.996 225.527C441.45 223.954 441.177 222.023 441.177 219.734C441.185 217.631 441.426 215.753 441.898 214.099C442.379 212.436 443.063 211.027 443.952 209.87C444.848 208.713 445.92 207.833 447.166 207.23C448.413 206.618 449.81 206.313 451.359 206.313C453.029 206.313 454.504 206.639 455.783 207.291C457.063 207.934 458.089 208.81 458.864 209.919C459.646 211.027 460.118 212.269 460.281 213.647H455.062C454.859 212.775 454.431 212.09 453.779 211.593C453.127 211.096 452.32 210.847 451.359 210.847C449.729 210.847 448.49 211.556 447.643 212.974C446.804 214.392 446.376 216.319 446.36 218.756H446.531C446.906 218.014 447.411 217.383 448.046 216.861C448.69 216.331 449.419 215.928 450.234 215.651C451.057 215.366 451.925 215.223 452.838 215.223C454.321 215.223 455.641 215.574 456.798 216.274C457.955 216.967 458.868 217.92 459.536 219.135C460.204 220.349 460.538 221.738 460.538 223.303C460.538 224.998 460.143 226.505 459.352 227.825C458.57 229.145 457.474 230.18 456.065 230.93C454.663 231.671 453.033 232.038 451.175 232.03ZM451.151 227.874C451.966 227.874 452.695 227.678 453.339 227.287C453.983 226.896 454.488 226.366 454.854 225.698C455.221 225.03 455.404 224.28 455.404 223.449C455.404 222.618 455.221 221.873 454.854 221.212C454.496 220.552 453.999 220.027 453.363 219.636C452.728 219.245 452.002 219.049 451.188 219.049C450.576 219.049 450.01 219.163 449.489 219.391C448.975 219.619 448.523 219.937 448.132 220.345C447.749 220.752 447.447 221.225 447.227 221.763C447.007 222.292 446.897 222.859 446.897 223.462C446.897 224.268 447.081 225.006 447.447 225.674C447.822 226.342 448.327 226.876 448.963 227.275C449.607 227.674 450.336 227.874 451.151 227.874ZM477.992 226.994V225.674C477.992 224.672 478.204 223.751 478.628 222.911C479.06 222.064 479.683 221.388 480.498 220.882C481.321 220.369 482.323 220.112 483.505 220.112C484.703 220.112 485.709 220.365 486.524 220.87C487.347 221.375 487.966 222.052 488.382 222.899C488.806 223.739 489.017 224.663 489.017 225.674V226.994C489.017 227.996 488.806 228.921 488.382 229.769C487.958 230.608 487.335 231.28 486.512 231.785C485.689 232.299 484.686 232.555 483.505 232.555C482.307 232.555 481.301 232.299 480.486 231.785C479.671 231.28 479.052 230.608 478.628 229.769C478.204 228.921 477.992 227.996 477.992 226.994ZM481.549 225.674V226.994C481.549 227.572 481.688 228.118 481.965 228.632C482.25 229.145 482.763 229.402 483.505 229.402C484.246 229.402 484.752 229.149 485.021 228.644C485.298 228.139 485.436 227.589 485.436 226.994V225.674C485.436 225.079 485.306 224.525 485.045 224.012C484.784 223.498 484.271 223.241 483.505 223.241C482.772 223.241 482.262 223.498 481.977 224.012C481.692 224.525 481.549 225.079 481.549 225.674ZM465.146 212.669V211.349C465.146 210.338 465.362 209.413 465.794 208.574C466.226 207.727 466.849 207.05 467.664 206.545C468.487 206.04 469.481 205.787 470.646 205.787C471.852 205.787 472.863 206.04 473.678 206.545C474.493 207.05 475.112 207.727 475.536 208.574C475.959 209.413 476.171 210.338 476.171 211.349V212.669C476.171 213.679 475.955 214.604 475.523 215.443C475.1 216.283 474.476 216.955 473.653 217.46C472.838 217.957 471.836 218.206 470.646 218.206C469.457 218.206 468.45 217.953 467.627 217.448C466.813 216.934 466.193 216.262 465.769 215.431C465.354 214.592 465.146 213.671 465.146 212.669ZM468.727 211.349V212.669C468.727 213.264 468.866 213.814 469.143 214.319C469.428 214.824 469.929 215.077 470.646 215.077C471.396 215.077 471.905 214.824 472.174 214.319C472.451 213.814 472.59 213.264 472.59 212.669V211.349C472.59 210.754 472.459 210.2 472.199 209.686C471.938 209.173 471.421 208.916 470.646 208.916C469.921 208.916 469.42 209.177 469.143 209.699C468.866 210.22 468.727 210.77 468.727 211.349ZM466.76 231.688L483.969 206.655H487.172L469.962 231.688H466.76Z" fill="white"/>
<path d="M179.594 434.93V431.117L188.504 422.866C189.262 422.133 189.897 421.473 190.411 420.886C190.932 420.299 191.328 419.725 191.596 419.163C191.865 418.592 192 417.977 192 417.317C192 416.584 191.833 415.952 191.499 415.422C191.165 414.885 190.708 414.473 190.13 414.188C189.551 413.895 188.895 413.748 188.162 413.748C187.396 413.748 186.728 413.903 186.157 414.212C185.587 414.522 185.147 414.966 184.837 415.545C184.528 416.123 184.373 416.812 184.373 417.61H179.349C179.349 415.972 179.72 414.551 180.461 413.345C181.203 412.139 182.242 411.206 183.578 410.546C184.915 409.885 186.455 409.555 188.198 409.555C189.991 409.555 191.552 409.873 192.88 410.509C194.216 411.136 195.255 412.008 195.997 413.125C196.738 414.241 197.109 415.52 197.109 416.963C197.109 417.908 196.922 418.841 196.547 419.762C196.18 420.682 195.524 421.705 194.579 422.83C193.634 423.946 192.301 425.286 190.582 426.851L186.927 430.432V430.603H197.439V434.93H179.594ZM214.976 430.237V428.917C214.976 427.914 215.188 426.993 215.611 426.154C216.043 425.307 216.667 424.63 217.481 424.125C218.304 423.612 219.307 423.355 220.488 423.355C221.686 423.355 222.692 423.608 223.507 424.113C224.33 424.618 224.95 425.294 225.365 426.142C225.789 426.981 226.001 427.906 226.001 428.917V430.237C226.001 431.239 225.789 432.164 225.365 433.011C224.941 433.85 224.318 434.523 223.495 435.028C222.672 435.541 221.67 435.798 220.488 435.798C219.29 435.798 218.284 435.541 217.469 435.028C216.654 434.523 216.035 433.85 215.611 433.011C215.188 432.164 214.976 431.239 214.976 430.237ZM218.533 428.917V430.237C218.533 430.815 218.671 431.361 218.948 431.874C219.233 432.388 219.747 432.644 220.488 432.644C221.23 432.644 221.735 432.392 222.004 431.887C222.281 431.381 222.42 430.831 222.42 430.237V428.917C222.42 428.322 222.289 427.768 222.028 427.254C221.768 426.741 221.254 426.484 220.488 426.484C219.755 426.484 219.246 426.741 218.96 427.254C218.675 427.768 218.533 428.322 218.533 428.917ZM202.13 415.911V414.591C202.13 413.581 202.345 412.656 202.777 411.817C203.209 410.969 203.833 410.293 204.647 409.788C205.47 409.282 206.465 409.03 207.63 409.03C208.836 409.03 209.846 409.282 210.661 409.788C211.476 410.293 212.095 410.969 212.519 411.817C212.943 412.656 213.155 413.581 213.155 414.591V415.911C213.155 416.922 212.939 417.847 212.507 418.686C212.083 419.525 211.46 420.198 210.637 420.703C209.822 421.2 208.82 421.448 207.63 421.448C206.44 421.448 205.434 421.196 204.611 420.691C203.796 420.177 203.177 419.505 202.753 418.674C202.337 417.834 202.13 416.914 202.13 415.911ZM205.711 414.591V415.911C205.711 416.506 205.849 417.056 206.126 417.561C206.412 418.067 206.913 418.319 207.63 418.319C208.379 418.319 208.889 418.067 209.158 417.561C209.435 417.056 209.573 416.506 209.573 415.911V414.591C209.573 413.996 209.443 413.442 209.182 412.929C208.921 412.416 208.404 412.159 207.63 412.159C206.905 412.159 206.403 412.42 206.126 412.941C205.849 413.463 205.711 414.013 205.711 414.591ZM203.743 434.93L220.953 409.898H224.155L206.945 434.93H203.743Z" fill="white"/>
</g>
</g>
<defs>
<linearGradient id="paint0_linear_949_255" x1="752" y1="418" x2="1104" y2="314" gradientUnits="userSpaceOnUse">
<stop stop-color="#26CE53"/>
<stop offset="1" stop-color="white"/>
</linearGradient>
<clipPath id="clip0_949_255">
<rect width="950" height="834" fill="white"/>
</clipPath>
</defs>
</svg>
